<?xml version="1.0" standalone="no"?>
<!DOCTYPE svg PUBLIC "-//W3C//DTD SVG 20010904//EN"
 "http://www.w3.org/TR/2001/REC-SVG-20010904/DTD/svg10.dtd">
<svg version="1.0" xmlns="http://www.w3.org/2000/svg"
 width="500.000000pt" height="500.000000pt" viewBox="0 0 500.000000 500.000000"
 preserveAspectRatio="xMidYMid meet">

<g transform="translate(0.000000,500.000000) scale(0.100000,-0.100000)"
fill="#61D9FA" stroke="none">
<path d="M2275 3975 c-488 -91 -861 -357 -1101 -784 -67 -119 -135 -310 -165
-459 -28 -139 -30 -390 -5 -531 60 -330 253 -676 500 -894 174 -154 434 -290
644 -338 493 -112 996 16 1367 348 273 243 442 564 500 945 72 477 -131 1021
-503 1343 -205 178 -443 299 -702 356 -127 28 -417 35 -535 14z m406 -150
c225 -32 392 -95 582 -221 118 -79 283 -239 359 -349 191 -275 284 -621 248
-926 -64 -548 -387 -963 -910 -1167 -118 -46 -322 -82 -467 -82 -273 0 -575
105 -808 280 -349 264 -545 662 -545 1108 0 405 177 779 495 1049 289 245 679
360 1046 308z"/>
<path d="M2350 3751 c-365 -54 -675 -242 -894 -541 -145 -197 -245 -499 -246
-735 0 -64 22 -241 39 -316 71 -311 279 -605 556 -785 148 -96 318 -166 475
-195 85 -16 368 -16 445 0 279 58 498 174 690 365 169 168 283 362 340 581 48
187 56 431 18 600 -111 494 -483 876 -974 1000 -83 21 -134 27 -249 30 -80 2
-170 0 -200 -4z m416 -100 c232 -57 440 -178 612 -355 158 -163 255 -340 318
-581 26 -96 26 -384 1 -498 -109 -492 -473 -851 -972 -959 -90 -19 -372 -16
-462 5 -350 83 -659 311 -819 606 -91 167 -154 417 -154 604 1 113 34 293 74
399 137 365 452 656 824 763 51 15 123 31 160 35 105 14 325 3 418 -19z"/>
<path d="M2412 3443 c-6 -15 -58 -156 -116 -313 -179 -489 -266 -724 -281
-758 -17 -37 -23 -37 -132 4 -148 55 -185 98 -120 139 59 37 61 104 5 157 -25
23 -39 28 -80 28 -99 0 -163 -74 -162 -185 1 -140 115 -249 331 -317 54 -17
73 -28 73 -41 0 -29 -61 -179 -91 -223 -35 -52 -79 -89 -123 -105 -32 -11 -52
-40 -38 -53 3 -3 96 -6 207 -6 l202 0 6 68 c2 37 21 115 41 177 l37 110 332
-1 332 0 12 -35 c19 -54 16 -64 -29 -88 -188 -99 -351 -218 -383 -281 -59
-114 -4 -225 110 -224 65 1 95 17 95 50 0 14 9 41 19 62 25 48 216 232 241
232 4 0 12 -17 17 -37 l9 -38 204 4 c113 2 207 5 208 6 13 12 -15 43 -52 58
-49 20 -104 75 -134 133 l-20 39 108 112 c169 175 244 301 245 408 0 105 -62
175 -157 175 -56 0 -92 -20 -114 -61 -24 -48 -18 -78 27 -121 22 -21 39 -46
37 -54 -2 -9 -25 -28 -51 -42 -57 -30 -208 -83 -218 -77 -4 3 -24 51 -44 107
-21 57 -80 218 -132 358 -103 277 -166 450 -212 575 l-29 80 -84 3 c-85 3 -85
3 -96 -25z m233 -756 c70 -208 124 -381 120 -385 -9 -9 -511 -9 -520 0 -7 6
14 72 150 478 100 301 106 316 115 299 4 -8 65 -184 135 -392z"/>
</g>
</svg>
