<?xml version="1.0" standalone="no"?>
<!DOCTYPE svg PUBLIC "-//W3C//DTD SVG 20010904//EN"
 "http://www.w3.org/TR/2001/REC-SVG-20010904/DTD/svg10.dtd">
<svg version="1.0" xmlns="http://www.w3.org/2000/svg"
 width="320.000000pt" height="320.000000pt" viewBox="0 0 320.000000 320.000000"
 preserveAspectRatio="xMidYMid meet">

<g transform="translate(0.000000,320.000000) scale(0.100000,-0.100000)"
fill="#61D9FA" stroke="none">
<path d="M1405 3089 c-298 -55 -507 -142 -717 -299 -323 -243 -549 -636 -599
-1045 -17 -135 -5 -366 25 -495 126 -540 510 -968 1020 -1135 163 -53 288 -68
511 -62 204 6 275 17 429 69 232 78 404 186 587 368 257 256 396 540 444 907
19 143 19 213 0 355 -33 251 -111 460 -252 673 -81 122 -271 316 -392 400
-259 180 -567 276 -881 274 -69 -1 -147 -5 -175 -10z m465 -162 c253 -54 503
-191 693 -380 249 -248 391 -566 404 -908 16 -408 -119 -760 -400 -1041 -428
-427 -1047 -528 -1586 -259 -301 150 -563 445 -672 758 -58 167 -71 241 -76
438 -4 165 -2 203 16 290 55 267 170 495 342 680 232 247 511 391 854 439 60
9 362 -4 425 -17z"/>
<path d="M1475 2864 c-73 -8 -229 -46 -309 -76 -428 -157 -747 -532 -837 -983
-20 -99 -18 -376 4 -481 51 -254 172 -478 358 -664 195 -196 465 -336 712
-369 110 -15 306 -14 407 3 169 28 348 100 501 202 94 62 255 217 327 314 107
144 191 338 229 530 23 119 23 368 -1 475 -88 402 -341 732 -703 917 -83 43
-209 86 -336 117 -51 12 -285 22 -352 15z m304 -85 c41 -5 120 -25 177 -44
618 -206 972 -822 829 -1440 -65 -278 -228 -528 -460 -703 -95 -72 -287 -165
-420 -203 -106 -31 -117 -32 -300 -33 -168 0 -200 2 -279 23 -479 125 -816
471 -917 942 -31 144 -32 372 -2 509 68 305 247 568 511 748 196 134 367 193
627 215 47 4 130 -1 234 -14z"/>
<path d="M1516 2571 c-3 -5 -47 -121 -97 -257 -72 -199 -283 -765 -315 -847
-5 -14 -13 -17 -38 -12 -59 13 -121 36 -181 68 -73 39 -85 71 -37 99 94 56 42
188 -74 188 -54 0 -103 -33 -132 -90 -31 -60 -26 -149 12 -215 45 -76 159
-149 304 -196 84 -27 82 -17 31 -155 -41 -108 -90 -171 -162 -208 -38 -20 -57
-35 -57 -48 0 -17 13 -18 205 -18 l205 0 0 58 c0 40 13 93 43 182 l42 125 85
-5 c113 -7 462 -4 523 4 47 7 48 6 62 -27 33 -79 33 -78 -57 -127 -122 -67
-251 -153 -298 -200 -51 -51 -70 -94 -70 -158 0 -83 57 -130 145 -120 54 7 75
22 75 55 0 50 51 116 171 219 48 40 90 74 93 74 3 0 11 -18 17 -40 l12 -40
198 0 c116 0 200 4 204 10 7 12 -30 50 -50 50 -26 0 -105 81 -132 134 l-25 50
37 30 c54 43 188 197 241 278 55 83 88 178 79 228 -18 95 -75 150 -158 150
-42 0 -54 -5 -83 -34 -44 -44 -47 -100 -8 -140 15 -14 30 -26 34 -26 11 0 20
-28 14 -44 -8 -22 -165 -89 -255 -110 -25 -5 -28 -2 -54 72 -15 42 -69 190
-120 327 -171 461 -207 560 -237 643 l-30 82 -78 0 c-44 0 -81 -4 -84 -9z
m219 -755 c69 -202 125 -376 125 -386 0 -10 -7 -21 -16 -24 -26 -10 -488 -7
-504 4 -12 7 5 67 107 372 147 439 141 424 153 412 6 -6 66 -175 135 -378z"/>
</g>
</svg>
